<svg xmlns="http://www.w3.org/2000/svg" width="214.532" height="186.752" viewBox="0 0 214.532 186.752"><defs><style>.a{fill:#e6e6e6;}.b{fill:#e2136e;}.c{fill:#fff;}.d{fill:#a0616a;}.e{fill:#2f2e41;}</style></defs><ellipse class="a" cx="59.13" cy="2.971" rx="59.13" ry="2.971" transform="translate(37.439 180.809)"/><circle class="a" cx="29.343" cy="29.343" r="29.343" transform="translate(0 0)"/><circle class="b" cx="24.453" cy="24.453" r="24.453" transform="translate(4.891 4.891)"/><circle class="a" cx="29.343" cy="29.343" r="29.343" transform="translate(77.923 0)"/><circle class="c" cx="24.453" cy="24.453" r="24.453" transform="translate(82.813 4.891)"/><circle class="a" cx="29.343" cy="29.343" r="29.343" transform="translate(155.845 0)"/><circle class="c" cx="24.453" cy="24.453" r="24.453" transform="translate(160.736 4.891)"/><path class="c" d="M74.27,85.084l-7.124-9.159L71.289,72.7l3.373,4.337L86.057,65.011l3.81,3.61Z" transform="translate(-47.195 -45.694)"/><g transform="translate(42.672 24.708)"><circle class="d" cx="8.283" cy="8.283" r="8.283" transform="translate(48.97 1.611)"/><path class="d" d="M592.808,288.7l-14.1-.224c1.213-3.342,1.739-6.472.9-9.178l10.745-1.119Q588.168,283.434,592.808,288.7Z" transform="translate(-527.048 -263.803)"/><path class="d" d="M520.438,423.185,518.1,429.43a3.782,3.782,0,0,0,3.083,5.082h0a3.782,3.782,0,0,0,4.237-3.9l-.277-7.2-2.015-36.937-8.283,2.462Z" transform="translate(-442.366 -342.776)"/><path class="e" d="M315.573,520.638l-6.716-.672-6.044-58.651-8.507,59.77-6.268-.224-1.567-65.591h30Z" transform="translate(-246.232 -370.833)"/><path class="e" d="M575.455,231.863s2.239,4.925,3.806,5.149,4.253,2.686,3.806,3.806-.224,4.477,4.253,4.029,4.253-.9,4.253-.9,7.163-13.655-.224-17.237S577.47,225.818,575.455,231.863Z" transform="translate(-528.052 -225.103)"/><path class="e" d="M640.464,765.151l.269,5.65s-4.1,6.4,1.011,6.4h0c3.7-.012,7.039,1.652,6.6-2.019l-.617-5.184-1.076-5.65Z" transform="translate(-599 -618.326)"/><path class="e" d="M568.851,765.151l-.269,5.65s4.1,6.4-1.011,6.4h0c-3.7-.012-7.039,1.652-6.6-2.019l.617-5.184,1.076-5.65Z" transform="translate(-499.566 -618.326)"/><path class="b" d="M569.254,373.233,535.9,371.666c6.221-19.962,6.267-36.3-1.567-51.337a8.053,8.053,0,0,1,4.867-7.4l9.684-4.171,12.312.672,8.124,4.468a9.671,9.671,0,0,1,5,8.968C567.2,339.849,566.8,356.592,569.254,373.233Z" transform="translate(-496.555 -286.108)"/><path class="b" d="M506.781,341.516l18.58-3.134-3.061-7.6A20.028,20.028,0,0,0,510.177,319.3l-1.829-.623Z" transform="translate(-440.127 -293.343)"/><path class="d" d="M678.08,311.164l-5.719-2.383a4.311,4.311,0,0,1-1.989-6.278h0a4.311,4.311,0,0,1,6.917-.509l4.244,4.944,16.636,11.938,11.309-4.694,1.347,9.38L696.7,327.24Z" transform="translate(-669.707 -280.077)"/><path class="b" d="M654.507,340.459l-9.207-8.665,2.437-2.979c2.178-5.408,7.186-7.632,12.7-9.51l1.829-.623,1.443,14.736Z" transform="translate(-615.987 -293.343)"/></g></svg>